<svg width="32" height="32" viewBox="0 0 32 32" fill="none" xmlns="http://www.w3.org/2000/svg">
<mask id="mask0" mask-type="alpha" maskUnits="userSpaceOnUse" x="2" y="2" width="28" height="28">
<circle cx="16" cy="16" r="14" fill="url(#paint0_linear)"/>
</mask>
<g mask="url(#mask0)">
<rect x="2" y="17" width="28" height="2" fill="url(#paint1_linear)"/>
<rect x="2" y="20" width="28" height="1" fill="url(#paint2_linear)"/>
<rect x="2" y="22" width="28" height="1" fill="url(#paint3_linear)"/>
<rect x="2" y="24" width="28" height="1" fill="url(#paint4_linear)"/>
<rect x="2" y="26" width="28" height="1" fill="url(#paint5_linear)"/>
<rect x="2" y="28" width="28" height="1" fill="url(#paint6_linear)"/>
<rect x="2" y="2" width="28" height="14" fill="url(#paint7_linear)"/>
</g>
<defs>
<linearGradient id="paint0_linear" x1="16" y1="2" x2="16" y2="30" gradientUnits="userSpaceOnUse">
<stop stop-color="#FFBA08"/>
<stop offset="1" stop-color="#D00000"/>
</linearGradient>
<linearGradient id="paint1_linear" x1="16" y1="2" x2="16" y2="30" gradientUnits="userSpaceOnUse">
<stop stop-color="#FFBA08"/>
<stop offset="1" stop-color="#D00000"/>
</linearGradient>
<linearGradient id="paint2_linear" x1="16" y1="2" x2="16" y2="30" gradientUnits="userSpaceOnUse">
<stop stop-color="#FFBA08"/>
<stop offset="1" stop-color="#D00000"/>
</linearGradient>
<linearGradient id="paint3_linear" x1="16" y1="2" x2="16" y2="30" gradientUnits="userSpaceOnUse">
<stop stop-color="#FFBA08"/>
<stop offset="1" stop-color="#D00000"/>
</linearGradient>
<linearGradient id="paint4_linear" x1="16" y1="2" x2="16" y2="30" gradientUnits="userSpaceOnUse">
<stop stop-color="#FFBA08"/>
<stop offset="1" stop-color="#D00000"/>
</linearGradient>
<linearGradient id="paint5_linear" x1="16" y1="2" x2="16" y2="30" gradientUnits="userSpaceOnUse">
<stop stop-color="#FFBA08"/>
<stop offset="1" stop-color="#D00000"/>
</linearGradient>
<linearGradient id="paint6_linear" x1="16" y1="2" x2="16" y2="30" gradientUnits="userSpaceOnUse">
<stop stop-color="#FFBA08"/>
<stop offset="1" stop-color="#D00000"/>
</linearGradient>
<linearGradient id="paint7_linear" x1="16" y1="2" x2="15.9999" y2="30" gradientUnits="userSpaceOnUse">
<stop stop-color="#FFBA08"/>
<stop offset="1" stop-color="#D00000"/>
</linearGradient>
</defs>
</svg>
